<svg version="1.1" id="Layer_1" xmlns="http://www.w3.org/2000/svg" xmlns:xlink="http://www.w3.org/1999/xlink" x="0px" y="0px"
	 width="382px" height="383.334px" viewBox="0 0 382 383.334" enable-background="new 0 0 382 383.334" xml:space="preserve">


<defs>
	<!-- <style type="text/css">
		
		#medium { display: block; }
		
		@media only screen and (max-width: 180px) {

			#medium {
				display: none;
			}

		}


	</style> -->
	<style type="text/css"><![CDATA[

		#medium { display: block; }
		
		@media only screen and (max-width: 180px) {

			#medium {
				display: none;
			}

		}

		
		@media only screen and (max-width: 120px) {

			#copy, #first-stroke {
				display : none;
			}

			#thick-stroke {
				stroke-width:0;
				fill: #336633;
			}
			
			#leaf {
				fill: #ffffff;
			}
		}
	]]></style>
</defs>


<circle id="thick-stroke" fill="none" stroke="#336633" stroke-width="32" stroke-miterlimit="10" cx="190.665" cy="192.667" r="154.333"/>
<path id="leaf" fill="#336633" d="M126,255.334C98.833,230.5,149.333,171,192.664,171c27.17,0,49.67-43,57.92-72
	c38.5,110.5-15.25,160-113.583,160.667c0,0-6.034,9.795,0,15.167c12.167,10.833,6.083,11.25,3.333,12s-18.25-5.083-15.5-12.833
	S126,255.334,126,255.334z"/>
<g id="copy">
	<circle id="first-stroke" fill="none" stroke="#336633" stroke-width="2" stroke-miterlimit="10" cx="190.665" cy="192.667" r="185.333"/>
	<g>
		<path fill="#FFFFFF" stroke="#FFFFFF" stroke-width="0.9342" stroke-miterlimit="10" d="M79.407,97.669
			c0.619-0.167,1.451-0.677,1.979-1.27c1.09-1.219,0.94-2.667-0.243-3.725c-1.081-0.965-2.303-0.929-3.824-0.627
			c-1.469,0.347-3.718,0.656-5.233-0.697c-1.777-1.587-1.979-3.991-0.313-5.855c0.652-0.731,1.455-1.174,1.913-1.266l0.854,1.358
			c-0.474,0.11-1.102,0.426-1.646,1.036c-1.026,1.15-0.638,2.468,0.163,3.184c1.168,1.042,2.166,0.837,3.962,0.438
			c2.254-0.524,3.895-0.187,5.201,0.98c2.021,1.805,2.017,4.37,0.351,6.233c-0.716,0.802-1.738,1.422-2.277,1.535L79.407,97.669z"/>
		<path fill="#FFFFFF" stroke="#FFFFFF" stroke-width="0.9342" stroke-miterlimit="10" d="M87.303,85.478l2.469,4.157l-1.26,1.185
			l-8.171-13.932l1.446-1.361l13.344,9.064l-1.293,1.217l-4-2.716L87.303,85.478z M88.675,82.198l-3.333-2.349
			c-0.939-0.657-1.989-1.465-2.926-2.188l-0.068,0.064c0.682,0.996,1.439,2.143,2.008,3.052l2.142,3.47L88.675,82.198z"/>
		<path fill="#FFFFFF" stroke="#FFFFFF" stroke-width="0.9342" stroke-miterlimit="10" d="M90.698,69.911l-2.238,1.802l-1.012-1.255
			l5.878-4.732l1.01,1.255l-2.237,1.802l8.863,11.007l-1.4,1.128L90.698,69.911z"/>
		<path fill="#FFFFFF" stroke="#FFFFFF" stroke-width="0.9342" stroke-miterlimit="10" d="M99.797,61.068l9.021,12.898l-1.474,1.031
			l-9.021-12.897L99.797,61.068z"/>
		<path fill="#FFFFFF" stroke="#FFFFFF" stroke-width="0.9342" stroke-miterlimit="10" d="M112.626,68.921
			c0.642,0.023,1.587-0.218,2.266-0.628c1.402-0.843,1.688-2.269,0.87-3.63c-0.746-1.241-1.925-1.567-3.467-1.73
			c-1.506-0.102-3.746-0.472-4.793-2.213c-1.229-2.042-0.711-4.397,1.431-5.686c0.84-0.505,1.737-0.691,2.202-0.643l0.414,1.549
			c-0.484-0.036-1.177,0.082-1.878,0.503c-1.321,0.794-1.339,2.168-0.785,3.089c0.808,1.341,1.82,1.439,3.654,1.59
			c2.309,0.165,3.774,0.973,4.678,2.473c1.397,2.322,0.635,4.77-1.506,6.058c-0.921,0.555-2.082,0.844-2.631,0.793L112.626,68.921z"
			/>
		<path fill="#FFFFFF" stroke="#FFFFFF" stroke-width="0.9342" stroke-miterlimit="10" d="M117.179,50.58l5.375-2.675l0.697,1.402
			l-3.765,1.874l2.456,4.936l3.515-1.749l0.676,1.36l-3.514,1.749l3.185,6.401l-1.61,0.801L117.179,50.58z"/>
		<path fill="#FFFFFF" stroke="#FFFFFF" stroke-width="0.9342" stroke-miterlimit="10" d="M133.47,55.151l0.788,4.769l-1.604,0.645
			l-2.545-15.945l1.843-0.742l9.129,13.293l-1.646,0.664l-2.736-3.984L133.47,55.151z M135.94,52.595l-2.251-3.399
			c-0.635-0.953-1.318-2.087-1.928-3.1l-0.086,0.034c0.271,1.175,0.56,2.519,0.759,3.572l0.733,4.01L135.94,52.595z"/>
		<path fill="#FFFFFF" stroke="#FFFFFF" stroke-width="0.9342" stroke-miterlimit="10" d="M152.099,53.356
			c-0.396,0.389-1.083,0.771-2.021,1.059c-2.947,0.904-5.771-0.819-7.339-5.93c-1.82-5.938,0.543-8.739,2.909-9.465
			c0.915-0.281,1.618-0.301,1.991-0.195l0.067,1.567c-0.405-0.047-0.834-0.087-1.614,0.153c-1.608,0.493-3.003,2.631-1.594,7.229
			c1.411,4.599,3.573,5.596,5.402,5.034c0.648-0.198,1.182-0.532,1.483-0.82L152.099,53.356z"/>
		<path fill="#FFFFFF" stroke="#FFFFFF" stroke-width="0.9342" stroke-miterlimit="10" d="M156.189,38.119l-2.808,0.609
			l-0.342-1.576l7.373-1.598l0.342,1.576l-2.808,0.608l2.993,13.811l-1.757,0.381L156.189,38.119z"/>
		<path fill="#FFFFFF" stroke="#FFFFFF" stroke-width="0.9342" stroke-miterlimit="10" d="M168.336,34.287l2.271,15.574l-1.78,0.26
			l-2.272-15.575L168.336,34.287z"/>
		<path fill="#FFFFFF" stroke="#FFFFFF" stroke-width="0.9342" stroke-miterlimit="10" d="M184.431,40.553
			c0.408,5.895-1.461,8.295-3.979,8.47c-2.609,0.181-4.549-2.471-4.916-7.76c-0.359-5.196,1.309-8.145,4.059-8.335
			C182.275,32.742,184.083,35.543,184.431,40.553z M177.404,41.157c0.225,3.239,1.074,6.41,3.055,6.273
			c2.027-0.141,2.326-3.603,2.113-6.678c-0.203-2.936-0.979-6.37-3.029-6.228C177.585,34.659,177.181,37.965,177.404,41.157z"/>
		<path fill="#FFFFFF" stroke="#FFFFFF" stroke-width="0.9342" stroke-miterlimit="10" d="M190.414,48.43l0.418-15.73l1.703,0.044
			l2.697,7.452c0.609,1.698,1.371,3.82,1.863,5.538l0.047,0.001c-0.076-2.477-0.092-4.51-0.02-7.241l0.148-5.625l1.611,0.043
			l-0.416,15.73l-1.705-0.045l-2.787-7.641c-0.588-1.604-1.217-3.419-1.725-5.395l-0.047-0.001c0.084,2.104,0.078,4.113-0.01,7.473
			l-0.146,5.438L190.414,48.43z"/>
		<path fill="#FFFFFF" stroke="#FFFFFF" stroke-width="0.9342" stroke-miterlimit="10" d="M219.276,50.879
			c-0.714,0.162-1.863,0.226-2.854,0.056c-1.357-0.233-2.56-0.818-3.398-2.146c-0.922-1.391-1.314-3.661-0.807-6.488
			c1.058-6.027,4.497-7.569,7.236-7.1c0.967,0.167,1.695,0.48,2.134,0.816l-0.65,1.453c-0.379-0.278-0.904-0.535-1.733-0.677
			c-1.932-0.331-4.292,0.851-5.117,5.662c-0.82,4.788,0.733,6.642,2.598,6.962c0.599,0.103,0.964,0.046,1.113,0.001l0.868-5.063
			l-2.002-0.344l0.252-1.473l3.684,0.631L219.276,50.879z"/>
		<path fill="#FFFFFF" stroke="#FFFFFF" stroke-width="0.9342" stroke-miterlimit="10" d="M227.827,48.449l-2.241,4.281
			l-1.668-0.449l7.564-14.26l1.917,0.517l-0.713,16.105l-1.712-0.461l0.211-4.828L227.827,48.449z M231.336,47.896l0.25-4.067
			c0.065-1.143,0.203-2.46,0.326-3.636l-0.09-0.024c-0.49,1.101-1.067,2.348-1.545,3.308l-1.827,3.643L231.336,47.896z"/>
		<path fill="#FFFFFF" stroke="#FFFFFF" stroke-width="0.9342" stroke-miterlimit="10" d="M243.062,41.754
			c0.795,0.07,1.703,0.307,2.535,0.615c1.467,0.544,2.447,1.255,2.938,2.284c0.448,1.012,0.389,2.111-0.04,3.271
			c-0.698,1.882-2.027,2.784-3.769,2.911l-0.017,0.044c0.974,0.733,1.154,1.996,0.768,4.043c-0.425,2.158-0.581,3.52-0.555,4.052
			l-1.707-0.633c-0.057-0.519,0.178-2.025,0.566-3.948c0.417-2.136,0.066-3.137-1.379-3.672l-0.656-0.244l-2.385,6.437l-1.686-0.625
			L243.062,41.754z M242.225,49.187l0.7,0.26c1.62,0.6,3.132-0.185,3.788-1.958c0.632-1.708,0.321-3.018-1.488-3.713
			c-0.327-0.122-0.664-0.222-0.907-0.237L242.225,49.187z"/>
		<path fill="#FFFFFF" stroke="#FFFFFF" stroke-width="0.9342" stroke-miterlimit="10" d="M253.487,57.622l-2.988,3.796
			l-1.558-0.748l10.051-12.628l1.789,0.859l-3.653,15.7l-1.599-0.768l1.093-4.706L253.487,57.622z M257.038,57.722l0.992-3.952
			c0.273-1.112,0.65-2.381,0.987-3.514l-0.085-0.04c-0.683,0.992-1.479,2.112-2.124,2.968l-2.464,3.245L257.038,57.722z"/>
		<path fill="#FFFFFF" stroke="#FFFFFF" stroke-width="0.9342" stroke-miterlimit="10" d="M261.712,67.11l8.146-13.47l1.459,0.882
			l-1.342,7.813c-0.31,1.778-0.698,3.999-1.12,5.736l0.04,0.024c1.16-2.191,2.152-3.966,3.566-6.304l2.912-4.816l1.379,0.833
			l-8.145,13.469l-1.459-0.881l1.357-8.022c0.282-1.685,0.633-3.575,1.168-5.543l-0.039-0.024c-0.969,1.871-1.968,3.613-3.707,6.491
			l-2.817,4.656L261.712,67.11z"/>
		<path fill="#FFFFFF" stroke="#FFFFFF" stroke-width="0.9342" stroke-miterlimit="10" d="M283.482,64.399l-2.316-1.699l0.953-1.3
			l6.084,4.463l-0.954,1.299l-2.316-1.699l-8.357,11.395l-1.45-1.064L283.482,64.399z"/>
		<path fill="#FFFFFF" stroke="#FFFFFF" stroke-width="0.9342" stroke-miterlimit="10" d="M294.396,70.94l-10.155,12.031
			l-1.375-1.161l10.154-12.031L294.396,70.94z"/>
		<path fill="#FFFFFF" stroke="#FFFFFF" stroke-width="0.9342" stroke-miterlimit="10" d="M298.215,85.713l-2.837-2.744
			l-4.107,4.245l3.222,3.117l-1.088,1.125l-4.514-4.368l10.943-11.31l4.313,4.172l-1.089,1.125l-3.02-2.922l-3.604,3.725
			l2.836,2.744L298.215,85.713z"/>
		<path fill="#FFFFFF" stroke="#FFFFFF" stroke-width="0.9342" stroke-miterlimit="10" d="M308.761,85.115
			c0.618,0.391,1.225,0.947,1.822,1.635c1.087,1.252,1.535,2.41,1.519,3.568c0.004,1.607-0.935,3.627-3.422,5.786
			c-2.716,2.358-4.78,2.975-6.25,2.92c-1.556-0.011-2.94-0.787-4.136-2.163c-0.476-0.547-0.931-1.142-1.193-1.625L308.761,85.115z
			 M299.338,95.677c0.133,0.225,0.302,0.419,0.409,0.542c1.301,1.5,3.633,2.011,7.673-1.496c2.999-2.603,3.843-4.945,2.188-6.85
			c-0.184-0.212-0.416-0.443-0.621-0.574L299.338,95.677z"/>
	</g>
	<g>
		<path fill="#FFFFFF" stroke="#FFFFFF" stroke-width="1.0539" stroke-miterlimit="10" d="M91.063,298.355
			c0.808,0.402,1.664,1.025,2.411,1.692c1.316,1.175,2.053,2.327,2.144,3.609c0.054,1.247-0.462,2.377-1.392,3.419
			c-1.509,1.69-3.277,2.089-5.156,1.506l-0.036,0.039c0.721,1.171,0.389,2.571-0.859,4.563c-1.337,2.091-2.063,3.457-2.254,4.027
			l-1.532-1.368c0.153-0.568,1.021-2.054,2.222-3.914c1.319-2.07,1.363-3.268,0.065-4.426l-0.59-0.525l-5.157,5.777l-1.514-1.351
			L91.063,298.355z M87.122,305.818l0.629,0.562c1.454,1.298,3.365,1.097,4.785-0.495c1.368-1.533,1.582-3.038-0.032-4.514
			c-0.295-0.263-0.607-0.507-0.856-0.623L87.122,305.818z"/>
		<path fill="#FFFFFF" stroke="#FFFFFF" stroke-width="1.0539" stroke-miterlimit="10" d="M100.355,317.729l-3.553-2.685
			l-4.018,5.318l4.035,3.05l-1.064,1.408l-5.653-4.272l10.705-14.168l5.402,4.083l-1.065,1.408l-3.783-2.859l-3.525,4.666
			l3.552,2.685L100.355,317.729z"/>
		<path fill="#FFFFFF" stroke="#FFFFFF" stroke-width="1.0539" stroke-miterlimit="10" d="M110.625,315.626l-2.729-1.75l0.981-1.53
			l7.166,4.593l-0.982,1.53l-2.729-1.748l-8.603,13.42l-1.708-1.096L110.625,315.626z"/>
		<path fill="#FFFFFF" stroke="#FFFFFF" stroke-width="1.0539" stroke-miterlimit="10" d="M121.078,319.78l-5.551,10.54
			c-1.487,2.821-1.057,4.269,0.155,4.907c1.329,0.7,2.709,0.116,4.158-2.635l5.551-10.541l1.796,0.946l-5.403,10.261
			c-2.149,4.08-4.651,4.758-6.983,3.529c-2.355-1.24-3.084-3.59-1.032-7.484l5.516-10.47L121.078,319.78z"/>
		<path fill="#FFFFFF" stroke="#FFFFFF" stroke-width="1.0539" stroke-miterlimit="10" d="M131.535,325.3
			c0.895,0.115,1.908,0.423,2.833,0.807c1.629,0.679,2.704,1.524,3.213,2.706c0.458,1.162,0.344,2.398-0.193,3.688
			c-0.87,2.093-2.409,3.051-4.378,3.116l-0.021,0.049c1.065,0.871,1.211,2.302,0.687,4.595c-0.576,2.414-0.813,3.942-0.806,4.545
			l-1.898-0.789c-0.041-0.588,0.29-2.277,0.814-4.428c0.564-2.39,0.214-3.535-1.392-4.203l-0.73-0.304l-2.976,7.153l-1.873-0.779
			L131.535,325.3z M130.262,333.646l0.778,0.324c1.802,0.749,3.539-0.069,4.359-2.04c0.789-1.897,0.496-3.39-1.512-4.254
			c-0.365-0.151-0.741-0.279-1.015-0.308L130.262,333.646z"/>
		<path fill="#FFFFFF" stroke="#FFFFFF" stroke-width="1.0539" stroke-miterlimit="10" d="M138.017,346.657l5.286-16.948
			l1.836,0.572l0.64,8.919c0.14,2.029,0.314,4.567,0.319,6.583l0.051,0.016c0.68-2.712,1.287-4.924,2.204-7.865l1.891-6.06
			l1.735,0.54l-5.287,16.949l-1.835-0.572l-0.678-9.152c-0.146-1.921-0.271-4.085-0.216-6.386l-0.05-0.016
			c-0.556,2.311-1.18,4.488-2.31,8.11l-1.827,5.858L138.017,346.657z"/>
		<path fill="#FFFFFF" stroke="#FFFFFF" stroke-width="1.0539" stroke-miterlimit="10" d="M164.768,335.289l-1.934,11.753
			c-0.518,3.146,0.346,4.384,1.698,4.605c1.481,0.245,2.607-0.746,3.111-3.813l1.936-11.753l2,0.329l-1.882,11.441
			c-0.749,4.551-2.908,5.984-5.509,5.557c-2.625-0.433-4.06-2.432-3.346-6.773l1.923-11.676L164.768,335.289z"/>
		<path fill="#FFFFFF" stroke="#FFFFFF" stroke-width="1.0539" stroke-miterlimit="10" d="M176.46,337.215
			c0.828-0.151,1.811-0.212,2.967-0.129c1.631,0.117,2.969,0.61,3.822,1.597c0.805,0.903,1.16,2.224,1.049,3.748
			c-0.117,1.63-0.59,2.705-1.338,3.549c-1.068,1.244-2.744,1.783-4.32,1.669c-0.344-0.024-0.605-0.043-0.895-0.091l-0.523,7.255
			l-2.023-0.146L176.46,337.215z M177.871,345.85c0.232,0.07,0.439,0.111,0.781,0.136c2,0.145,3.434-1.072,3.613-3.569
			c0.133-1.813-0.512-3.498-2.746-3.659c-0.473-0.035-0.871-0.011-1.139,0.049L177.871,345.85z"/>
		<path fill="#FFFFFF" stroke="#FFFFFF" stroke-width="1.0539" stroke-miterlimit="10" d="M196.283,339.303l-3.236,0.151
			l-0.084-1.816l8.498-0.396l0.084,1.816l-3.236,0.15l0.742,15.918l-2.025,0.095L196.283,339.303z"/>
		<path fill="#FFFFFF" stroke="#FFFFFF" stroke-width="1.0539" stroke-miterlimit="10" d="M214.798,344.486
			c0.837,6.613-1.116,9.437-3.938,9.794c-2.927,0.371-5.282-2.491-6.032-8.425c-0.738-5.828,0.953-9.256,4.037-9.647
			C211.869,335.829,214.086,338.867,214.798,344.486z M206.921,345.617c0.459,3.633,1.623,7.151,3.844,6.87
			c2.273-0.288,2.388-4.207,1.951-7.657c-0.417-3.294-1.512-7.111-3.811-6.82C206.71,338.287,206.468,342.036,206.921,345.617z"/>
		<path fill="#FFFFFF" stroke="#FFFFFF" stroke-width="1.0539" stroke-miterlimit="10" d="M231.082,334.073
			c-0.324,0.111-0.669,0.256-1.127,0.483c-2.581,1.38-2.961,4.42-2.705,7.075l0.077-0.02c0.391-1.109,1.144-1.986,2.393-2.311
			c2.117-0.551,4.075,1.009,4.898,4.171c0.816,3.137,0.046,6.032-2.606,6.723c-2.882,0.75-5.099-1.804-6.088-5.604
			c-0.837-3.213-0.646-5.932,0.197-8.029c0.63-1.662,1.972-2.991,3.32-3.669c0.509-0.241,0.936-0.38,1.21-0.479L231.082,334.073z
			 M232.694,344.136c-0.65-2.499-1.842-3.523-3.194-3.171c-0.816,0.212-1.512,0.992-1.677,2.342
			c-0.031,0.198-0.021,0.55,0.105,1.034c0.908,3.386,2.357,4.669,3.684,4.324C232.735,348.373,233.444,347.018,232.694,344.136z"/>
		<path fill="#FFFFFF" stroke="#FFFFFF" stroke-width="1.0539" stroke-miterlimit="10" d="M245.913,336.576
			c2.062,5.894,1.041,8.958-1.296,9.776c-2.512,0.879-5.072-1.574-6.917-6.846c-1.906-5.445-1.291-8.87,1.345-9.793
			C241.656,328.799,244.11,331.429,245.913,336.576z M239.606,338.812c1.365,3.903,2.994,6.403,4.586,5.847
			c1.517-0.531,1.172-3.509-0.186-7.388c-1.322-3.779-2.945-6.421-4.487-5.882C237.978,331.929,238.247,334.933,239.606,338.812z"/>
		<path fill="#FFFFFF" stroke="#FFFFFF" stroke-width="1.0539" stroke-miterlimit="10" d="M252.473,324.119
			c0.6-0.568,1.374-1.079,2.29-1.543c1.669-0.845,3.059-1.017,4.321-0.681c1.759,0.439,3.709,2.021,5.387,5.336
			c1.831,3.62,1.938,6.047,1.474,7.64c-0.438,1.698-1.671,3-3.504,3.929c-0.729,0.368-1.505,0.701-2.104,0.857L252.473,324.119z
			 M261.433,337.331c0.281-0.083,0.54-0.215,0.704-0.298c1.999-1.011,3.201-3.42,0.477-8.804c-2.021-3.996-4.351-5.563-6.889-4.279
			c-0.283,0.143-0.6,0.333-0.799,0.521L261.433,337.331z"/>
		<path fill="#FFFFFF" stroke="#FFFFFF" stroke-width="1.0539" stroke-miterlimit="10" d="M272.237,327.265l1.811,5.144
			l-1.654,1.032l-5.957-17.218l1.901-1.186l12.753,12.979l-1.698,1.06l-3.824-3.889L272.237,327.265z M274.48,323.94l-3.166-3.335
			c-0.894-0.934-1.876-2.061-2.753-3.067l-0.089,0.056c0.532,1.253,1.118,2.688,1.544,3.82l1.602,4.312L274.48,323.94z"/>
		<path fill="#FFFFFF" stroke="#FFFFFF" stroke-width="1.0539" stroke-miterlimit="10" d="M286.539,324.112l-4.468-6.038
			l-9.234-5.92l1.715-1.271l3.921,2.64c1.098,0.729,2.311,1.57,3.444,2.437l0.041-0.031c-0.519-1.321-0.959-2.668-1.393-4.053
			l-1.395-4.41l1.717-1.27l2.768,10.607l4.516,6.102L286.539,324.112z"/>
		<path fill="#FFFFFF" stroke="#FFFFFF" stroke-width="1.0539" stroke-miterlimit="10" d="M293.208,315.981
			c0.717-0.101,1.718-0.555,2.394-1.144c1.39-1.213,1.428-2.853,0.251-4.203c-1.075-1.231-2.447-1.363-4.192-1.239
			c-1.693,0.183-4.255,0.214-5.761-1.514c-1.766-2.026-1.654-4.744,0.47-6.598c0.834-0.728,1.795-1.11,2.319-1.148l0.766,1.64
			c-0.545,0.056-1.292,0.322-1.986,0.929c-1.311,1.143-1.061,2.673-0.264,3.586c1.16,1.33,2.305,1.241,4.373,1.046
			c2.595-0.271,4.384,0.337,5.683,1.826c2.009,2.304,1.644,5.173-0.48,7.026c-0.913,0.797-2.146,1.347-2.766,1.397L293.208,315.981z
			"/>
	</g>
	<path fill="#FFFFFF" d="M140.667,245.667c0,0,0.593-0.207,1.706-0.595c1.129-0.346,2.708-1.056,4.741-1.851
		c2.009-0.876,4.454-1.927,7.2-3.266c1.383-0.644,2.838-1.367,4.364-2.146c1.53-0.768,3.148-1.554,4.808-2.435
		c1.667-0.865,3.409-1.753,5.18-2.734c1.776-0.972,3.637-1.927,5.504-2.996c3.762-2.083,7.684-4.361,11.703-6.771
		c2.006-1.212,4.05-2.435,6.068-3.75c1.016-0.647,2.037-1.299,3.063-1.954c1.013-0.675,2.03-1.353,3.052-2.032
		c4.108-2.693,8.104-5.663,12-8.731l2.829-2.394c0.467-0.402,0.951-0.789,1.403-1.203l1.318-1.274l1.317-1.271l0.657-0.634
		l0.583-0.658c0.823-0.933,1.645-1.862,2.462-2.789c2.974-3.754,5.836-7.637,8.282-11.613c1.286-1.946,2.379-3.972,3.568-5.881
		c1.102-1.962,2.209-3.868,3.22-5.761c2.015-3.79,3.881-7.401,5.501-10.787c0.827-1.685,1.582-3.318,2.295-4.874
		c0.737-1.546,1.397-3.029,2.012-4.426c1.239-2.79,2.25-5.254,3.037-7.3c0.78-2.048,1.385-3.663,1.711-4.791
		c0.197-0.558,0.269-0.998,0.326-1.296c0.059-0.3,0.089-0.454,0.089-0.454s-0.017,0.156-0.048,0.458
		c-0.029,0.303-0.063,0.761-0.209,1.332c-0.237,1.157-0.653,2.842-1.317,4.943c-0.651,2.104-1.498,4.643-2.552,7.525
		c-1.042,2.887-2.273,6.126-3.775,9.594c-1.457,3.488-3.16,7.215-5.08,11.104c-0.954,1.947-2.006,3.914-3.052,5.94
		c-0.559,0.995-1.123,2-1.692,3.016c-0.568,1.017-1.149,2.039-1.784,3.044c-0.621,1.013-1.248,2.033-1.879,3.062
		c-0.646,1.02-1.347,2.019-2.025,3.039c-1.309,2.055-2.922,4.038-4.452,6.04c-0.811,0.932-1.625,1.867-2.442,2.806l-0.651,0.743
		l-0.683,0.669l-1.369,1.341L216.284,205c-0.468,0.435-0.961,0.834-1.44,1.254l-2.904,2.486c-4.012,3.116-8.104,6.11-12.281,8.809
		c-1.041,0.681-2.078,1.358-3.109,2.032c-1.052,0.641-2.098,1.277-3.139,1.91c-2.067,1.287-4.156,2.478-6.204,3.656
		c-4.091,2.368-8.132,4.5-11.987,6.468c-3.851,1.979-7.543,3.746-10.984,5.304c-1.711,0.796-3.365,1.531-4.954,2.195
		c-1.582,0.679-3.089,1.307-4.521,1.86c-2.841,1.157-5.367,2.048-7.439,2.792c-2.103,0.686-3.75,1.206-4.9,1.462
		C141.276,245.514,140.667,245.667,140.667,245.667z"/>
</g>
<g id="medium">
	<path fill="none" stroke="#FFFFFF" stroke-width="2" stroke-miterlimit="10" d="M315.17,101.45
		c18.753,25.553,29.828,57.092,29.828,91.217c0,41.603-16.461,79.36-43.225,107.116"/>
	<path fill="none" stroke="#FFFFFF" stroke-width="2" stroke-miterlimit="10" d="M79.554,299.78
		c-26.762-27.755-43.222-65.512-43.222-107.113c0-35.226,11.801-67.694,31.665-93.669"/>
	<path fill="none" stroke="#336633" stroke-width="2.7005" stroke-miterlimit="10" d="M266.827,127.04
		c15.189,17.611,24.374,40.547,24.374,65.627c0,55.524-45.012,100.535-100.535,100.535c-14.387,0-28.066-3.021-40.441-8.465"/>
	<path fill="none" stroke="#336633" stroke-width="2.7005" stroke-miterlimit="10" d="M120.454,264.624
		c-18.708-18.258-30.324-43.751-30.324-71.957c0-55.524,45.011-100.535,100.536-100.535c16.863,0,32.757,4.152,46.715,11.489"/>
	<path fill="#FFFFFF" d="M136.19,237.5c0,0-0.14-1.637-0.15-4.078c-0.017-0.609,0.003-1.272,0.067-1.978
		c0.051-0.703,0.096-1.448,0.174-2.217c0.053-0.771,0.189-1.559,0.338-2.356c0.167-0.795,0.253-1.617,0.494-2.413
		c0.234-0.795,0.468-1.59,0.698-2.372c0.283-0.765,0.604-1.502,0.891-2.221c0.303-0.712,0.666-1.364,0.981-1.996
		c0.308-0.637,0.656-1.198,0.961-1.729c1.223-2.116,2.152-3.468,2.152-3.468c0,0-0.468,1.578-1.362,3.846
		c-0.222,0.565-0.461,1.178-0.715,1.825c-0.245,0.644-0.503,1.322-0.771,2.025c-0.241,0.707-0.465,1.445-0.737,2.178
		c-0.205,0.755-0.413,1.521-0.621,2.288c-0.248,0.755-0.347,1.555-0.526,2.318c-0.151,0.771-0.366,1.519-0.456,2.264
		c-0.219,1.486-0.543,2.852-0.698,4.068C136.559,235.9,136.19,237.5,136.19,237.5z"/>
	<path fill="#FFFFFF" d="M154.542,231.024c0,0-0.162-1.887-0.172-4.699c0-0.352-0.001-0.718-0.002-1.098
		c0.025-0.381,0.052-0.774,0.079-1.18c0.058-0.811,0.111-1.669,0.201-2.555c0.062-0.889,0.217-1.796,0.39-2.715
		c0.193-0.916,0.292-1.864,0.569-2.781c0.27-0.915,0.539-1.831,0.805-2.732c0.326-0.881,0.695-1.73,1.026-2.559
		c0.348-0.82,0.767-1.572,1.13-2.3c0.355-0.733,0.756-1.381,1.107-1.993c1.409-2.438,2.48-3.995,2.48-3.995s-0.54,1.818-1.57,4.432
		c-0.255,0.65-0.531,1.356-0.823,2.102c-0.283,0.742-0.581,1.524-0.889,2.334c-0.277,0.815-0.536,1.665-0.849,2.51
		c-0.235,0.869-0.475,1.753-0.715,2.636c-0.286,0.87-0.4,1.792-0.606,2.672c-0.173,0.888-0.422,1.749-0.525,2.608
		c-0.252,1.712-0.626,3.284-0.804,4.687C154.966,229.18,154.542,231.024,154.542,231.024z"/>
	<path fill="#FFFFFF" d="M174.605,223.5c0,0-0.271-2.033-0.271-5.064c0-0.38,0-0.774,0-1.184c0-0.41,0.14-0.835,0.169-1.271
		c0.063-0.874,0.161-1.799,0.259-2.753c0.066-0.958,0.256-1.936,0.441-2.927c0.208-0.987,0.325-2.009,0.624-2.997
		c0.29-0.987,0.587-1.974,0.873-2.945c0.352-0.95,0.751-1.865,1.107-2.759c0.376-0.884,0.829-1.693,1.221-2.478
		c0.382-0.791,0.814-1.488,1.192-2.149c1.52-2.627,2.674-4.306,2.674-4.306s-0.582,1.96-1.691,4.776
		c-0.268,0.706-0.59,1.463-0.889,2.266c-0.304,0.8-0.625,1.643-0.957,2.516c-0.299,0.879-0.578,1.794-0.915,2.705
		c-0.254,0.938-0.513,1.889-0.771,2.841c-0.309,0.938-0.432,1.931-0.654,2.879c-0.187,0.958-0.454,1.886-0.566,2.812
		c-0.271,1.846-0.717,3.541-0.909,5.053C175.105,221.513,174.605,223.5,174.605,223.5z"/>
	<path fill="#FFFFFF" d="M192.805,209.05c0,0-0.226-1.477-0.38-3.69c-0.053-0.552-0.074-1.154-0.059-1.797
		c0.004-0.641,0.001-1.319,0.025-2.021c0.002-0.703,0.078-1.426,0.166-2.158c0.104-0.73,0.133-1.482,0.303-2.219
		c0.164-0.734,0.329-1.47,0.491-2.192c0.21-0.711,0.457-1.399,0.675-2.068c0.231-0.664,0.521-1.277,0.77-1.869
		c0.241-0.596,0.523-1.126,0.768-1.627c0.982-1.992,1.744-3.273,1.744-3.273s-0.33,1.459-1.006,3.57
		c-0.342,1.056-0.717,2.278-1.116,3.581c-0.176,0.656-0.335,1.338-0.538,2.02c-0.141,0.696-0.282,1.404-0.425,2.112
		c-0.18,0.699-0.222,1.431-0.339,2.134c-0.09,0.709-0.241,1.399-0.277,2.081c-0.109,1.361-0.322,2.619-0.39,3.731
		C193.043,207.577,192.805,209.05,192.805,209.05z"/>
	<path fill="#FFFFFF" d="M207.136,199.145c0,0-0.209-1.368-0.352-3.418c-0.049-0.512-0.068-1.069-0.054-1.665
		c0.003-0.594,0.001-1.223,0.023-1.872c0.001-0.651,0.071-1.32,0.153-1.999c0.096-0.677,0.123-1.373,0.28-2.056
		c0.152-0.681,0.306-1.361,0.455-2.031c0.195-0.658,0.424-1.296,0.625-1.916c0.214-0.614,0.483-1.183,0.714-1.73
		c0.223-0.553,0.484-1.044,0.711-1.507c0.91-1.846,1.615-3.033,1.615-3.033s-0.306,1.352-0.932,3.308
		c-0.316,0.978-0.664,2.11-1.034,3.316c-0.163,0.608-0.311,1.24-0.498,1.871c-0.13,0.646-0.263,1.302-0.394,1.957
		c-0.167,0.648-0.206,1.326-0.314,1.978c-0.084,0.655-0.223,1.296-0.258,1.927c-0.101,1.262-0.298,2.426-0.359,3.457
		C207.357,197.78,207.136,199.145,207.136,199.145z"/>
	<path fill="#FFFFFF" d="M221.136,186.145c0,0-0.209-1.368-0.352-3.418c-0.049-0.512-0.069-1.069-0.054-1.665
		c0.003-0.594,0-1.223,0.023-1.872c0.002-0.651,0.072-1.32,0.153-1.999c0.097-0.677,0.123-1.373,0.28-2.055
		c0.152-0.681,0.305-1.361,0.455-2.032c0.195-0.658,0.424-1.295,0.625-1.916c0.215-0.615,0.483-1.183,0.713-1.731
		c0.224-0.552,0.485-1.043,0.711-1.507c0.911-1.846,1.616-3.033,1.616-3.033s-0.306,1.352-0.932,3.307
		c-0.316,0.978-0.664,2.111-1.034,3.317c-0.163,0.608-0.311,1.24-0.498,1.871c-0.13,0.646-0.262,1.301-0.394,1.957
		c-0.167,0.648-0.206,1.326-0.314,1.977c-0.083,0.656-0.223,1.296-0.257,1.928c-0.102,1.261-0.299,2.425-0.361,3.457
		C221.357,184.78,221.136,186.145,221.136,186.145z"/>
	<path fill="#FFFFFF" d="M154.542,248.5c0,0,0.315,0.075,0.858,0.229c0.539,0.163,1.32,0.369,2.238,0.665
		c0.459,0.15,0.975,0.207,1.502,0.338c0.528,0.117,1.084,0.241,1.66,0.37c0.579,0.116,1.196,0.16,1.809,0.265
		c0.616,0.084,1.236,0.215,1.872,0.23c0.631,0.052,1.262,0.104,1.883,0.156c0.625,0.022,1.239,0.044,1.833,0.065
		c0.595,0.025,1.173,0.039,1.722,0.035c0.55,0.006,1.07,0.012,1.55,0.017c1.929,0,3.223,0.13,3.223,0.13s-0.322,0.056-0.879,0.13
		c-0.559,0.075-1.355,0.184-2.311,0.313c-0.479,0.062-1.003,0.109-1.556,0.156c-0.553,0.055-1.138,0.101-1.747,0.1
		c-0.607,0.003-1.237,0.05-1.876,0.018c-0.64-0.041-1.289-0.083-1.938-0.125c-0.651-0.029-1.291-0.174-1.924-0.272
		c-0.632-0.112-1.254-0.213-1.849-0.36c-0.587-0.18-1.156-0.354-1.694-0.519c-0.532-0.177-1.051-0.307-1.486-0.514
		c-0.877-0.401-1.593-0.774-2.102-1.018C154.825,248.658,154.542,248.5,154.542,248.5z"/>
	<path fill="#FFFFFF" d="M164.542,242.5c0,0,0.315,0.075,0.858,0.229c0.54,0.163,1.32,0.369,2.238,0.665
		c0.459,0.15,0.975,0.207,1.502,0.338c0.528,0.117,1.084,0.241,1.66,0.37c0.579,0.116,1.196,0.16,1.808,0.265
		c0.616,0.085,1.237,0.215,1.872,0.23c0.631,0.052,1.262,0.104,1.883,0.156c0.624,0.022,1.238,0.044,1.834,0.065
		c0.595,0.025,1.172,0.039,1.722,0.035c0.55,0.006,1.07,0.012,1.55,0.017c1.93,0,3.223,0.13,3.223,0.13s-0.321,0.056-0.879,0.13
		c-0.558,0.075-1.354,0.184-2.311,0.313c-0.479,0.062-1.003,0.109-1.556,0.156c-0.554,0.055-1.138,0.101-1.747,0.1
		c-0.607,0.003-1.237,0.05-1.877,0.018c-0.639-0.041-1.288-0.083-1.938-0.125c-0.651-0.029-1.291-0.174-1.924-0.272
		c-0.633-0.112-1.254-0.213-1.849-0.36c-0.588-0.18-1.156-0.354-1.695-0.519c-0.531-0.177-1.051-0.307-1.486-0.514
		c-0.877-0.4-1.593-0.774-2.102-1.018C164.825,242.658,164.542,242.5,164.542,242.5z"/>
	<path fill="#FFFFFF" d="M182.542,234.5c0,0,0.315,0.075,0.858,0.229c0.539,0.163,1.319,0.369,2.238,0.665
		c0.459,0.15,0.975,0.207,1.502,0.338c0.527,0.117,1.084,0.241,1.659,0.37c0.579,0.116,1.196,0.16,1.809,0.265
		c0.616,0.084,1.236,0.215,1.872,0.23c0.631,0.052,1.262,0.104,1.883,0.156c0.624,0.022,1.238,0.044,1.833,0.065
		c0.595,0.025,1.173,0.039,1.722,0.035c0.551,0.006,1.07,0.012,1.551,0.017c1.929,0,3.223,0.13,3.223,0.13s-0.322,0.056-0.879,0.13
		c-0.559,0.075-1.355,0.184-2.311,0.313c-0.479,0.062-1.003,0.109-1.557,0.156c-0.553,0.055-1.138,0.101-1.746,0.1
		c-0.607,0.003-1.238,0.05-1.877,0.018c-0.639-0.041-1.289-0.083-1.938-0.125c-0.652-0.029-1.291-0.174-1.924-0.272
		c-0.633-0.112-1.254-0.213-1.85-0.36c-0.587-0.18-1.155-0.354-1.693-0.519c-0.532-0.177-1.052-0.307-1.486-0.514
		c-0.877-0.401-1.594-0.774-2.102-1.018C182.825,234.658,182.542,234.5,182.542,234.5z"/>
	<path fill="#FFFFFF" d="M199.55,229.342c0,0,0.324-0.015,0.889-0.018c0.563,0.008,1.37-0.011,2.334,0.02
		c0.483,0.018,0.994-0.071,1.537-0.091c0.539-0.033,1.109-0.068,1.697-0.104c0.588-0.047,1.193-0.177,1.811-0.245
		c0.617-0.09,1.248-0.136,1.863-0.297c0.621-0.124,1.241-0.248,1.853-0.371c0.606-0.151,1.203-0.3,1.78-0.443
		c0.579-0.141,1.138-0.287,1.664-0.443c0.53-0.146,1.032-0.285,1.495-0.413c1.854-0.533,3.132-0.767,3.132-0.767
		s-0.293,0.143-0.809,0.367c-0.515,0.228-1.251,0.552-2.134,0.941c-0.442,0.191-0.934,0.383-1.452,0.58
		c-0.516,0.206-1.065,0.412-1.65,0.58c-0.583,0.171-1.176,0.39-1.799,0.536c-0.625,0.137-1.261,0.276-1.896,0.415
		c-0.635,0.152-1.289,0.19-1.925,0.271c-0.638,0.067-1.263,0.143-1.876,0.166c-0.614-0.01-1.209-0.02-1.771-0.029
		c-0.56-0.022-1.095-0.004-1.57-0.083c-0.954-0.143-1.745-0.304-2.301-0.396C199.867,229.415,199.55,229.342,199.55,229.342z"/>
	<path fill="#FFFFFF" d="M213.872,218.799c0,0,0.318-0.063,0.876-0.147c0.558-0.075,1.354-0.211,2.313-0.322
		c0.48-0.054,0.973-0.216,1.507-0.314c0.528-0.112,1.087-0.229,1.664-0.352c0.574-0.133,1.154-0.35,1.755-0.508
		c0.597-0.179,1.215-0.317,1.799-0.565c0.597-0.214,1.192-0.428,1.778-0.639c0.578-0.238,1.146-0.473,1.696-0.699
		c0.553-0.224,1.084-0.451,1.582-0.683c0.503-0.223,0.979-0.433,1.418-0.627c1.756-0.799,2.986-1.217,2.986-1.217
		s-0.27,0.185-0.746,0.482c-0.477,0.3-1.156,0.729-1.973,1.243c-0.41,0.254-0.867,0.515-1.352,0.786
		c-0.48,0.279-0.994,0.563-1.549,0.814c-0.552,0.255-1.105,0.558-1.7,0.794c-0.599,0.228-1.207,0.458-1.816,0.688
		c-0.604,0.243-1.246,0.377-1.863,0.55c-0.622,0.16-1.229,0.325-1.831,0.438c-0.61,0.079-1.199,0.156-1.758,0.229
		c-0.557,0.06-1.083,0.157-1.565,0.147c-0.964-0.001-1.771-0.044-2.334-0.055C214.195,218.825,213.872,218.799,213.872,218.799z"/>
	<path fill="#FFFFFF" d="M230.585,203.565c0,0,0.301-0.12,0.833-0.308c0.534-0.178,1.291-0.46,2.212-0.748
		c0.462-0.142,0.915-0.394,1.421-0.591c0.499-0.208,1.025-0.428,1.57-0.654c0.539-0.238,1.069-0.56,1.63-0.827
		c0.552-0.286,1.134-0.538,1.661-0.891c0.546-0.321,1.092-0.643,1.628-0.959c0.523-0.342,1.038-0.678,1.536-1.004
		c0.501-0.322,0.981-0.645,1.427-0.965c0.453-0.313,0.882-0.607,1.276-0.88c1.575-1.113,2.707-1.753,2.707-1.753
		s-0.23,0.231-0.644,0.612c-0.411,0.384-1,0.932-1.706,1.59c-0.355,0.326-0.756,0.667-1.181,1.024
		c-0.42,0.364-0.871,0.739-1.369,1.089c-0.495,0.354-0.982,0.755-1.522,1.098c-0.547,0.335-1.102,0.675-1.656,1.015
		c-0.549,0.353-1.154,0.604-1.729,0.888c-0.581,0.273-1.147,0.549-1.718,0.771c-0.584,0.192-1.148,0.378-1.684,0.555
		c-0.536,0.162-1.035,0.355-1.51,0.437c-0.948,0.179-1.748,0.286-2.304,0.381C230.908,203.53,230.585,203.565,230.585,203.565z"/>
</g>
</svg>
