<?xml version="1.0" encoding="utf-8"?>
<!-- Generator: Adobe Illustrator 16.0.0, SVG Export Plug-In . SVG Version: 6.00 Build 0)  -->
<!DOCTYPE svg PUBLIC "-//W3C//DTD SVG 1.1//EN" "http://www.w3.org/Graphics/SVG/1.1/DTD/svg11.dtd">
<svg version="1.1" xmlns="http://www.w3.org/2000/svg" xmlns:xlink="http://www.w3.org/1999/xlink" x="0px" y="0px" width="960px"
	 height="560px" viewBox="0 0 960 560" enable-background="new 0 0 960 560" xml:space="preserve">



	 <defs>
	 	
	 	<style type="text/css"><![CDATA[

	 		
	 		@media only screen and (max-width: 180px) {

	 			#medium {
	 				display: none;
	 			}

	 		}

	 		
	 		@media only screen and (max-width: 120px) {

	 			#Nity_copy {
	 				fill: blue;
	 			}
	 		}
	 	]]></style>
	 </defs>




<g id="Original" display="none">
	<path display="inline" fill="#52575B" d="M156.006,341.574c0.365-64.984-0.73-156.622,0.365-166.114
		c14.969-6.572,27.989-25.921,31.884-31.032c2.435-5.111-2.677-6.937-14.725,0c-12.048,1.095-25.426-21.997-43.537-21.997
		c-12.937,0-24.853,13.256-38.729,24.429c-14.361,11.562-32.94,27.772-30.304,31.033c4.625,5.72,23.123-11.073,37.361-3.285
		c0,6.815,0.73,8.15,0.73,26.772c0,48.009-0.852,127.435-0.852,156.683c-3.408,18.438-23.73,29.025-20.567,35.84
		c3.166,6.813,13.649-3.309,18.396-5.135c2.342-0.9,7.917-3.459,18.042-1.383l0.005-0.004l59.139-35.373
		C165.925,346.396,159.464,342.171,156.006,341.574z"/>
	<g display="inline">
		<path fill="#52575B" d="M202.231,398.693c-2.122,4.697-10.573,10.99-16.429,18.254c-8.249,10.229-16.977,20.811-32.493,12.047
			c-21.5-18.811-36.713-25.826-47.111-27.945c0.021,0.004,0.042,0.006,0.063,0.012l0.005-0.006l59.139-35.373L202.231,398.693z"/>
	</g>
	<path display="inline" fill="#586572" d="M314.413,139.339c-2.342-1.224-7.798,4.759-14.846,4.381
		c-6.816-0.365-10.71-4.26-17.646-9.492c-9.561-7.212-16.794-12.778-24.935-12.413c-8.14,0.365-28.003,14.969-34.94,21.175
		c-6.937,6.206-35.542,28.124-28.355,33.223c3.772,2.677,21.419-10.345,29.086-3.286c0,11.989,0.234,101.432,0.328,149.23
		l57.356-34.309c0-48.468,0-109.081,0-109.081S325.402,145.085,314.413,139.339z"/>
	<path display="inline" fill="#586572" d="M217.598,336.154c0.024,11.879,0.038,21.196,0.038,26.102
		c-3.742,3.377-14.733,11.213-23.447,18.217c4.176,4.176,9.996,9.336,16.408,15.748c1.734-1.619,5.762-6.674,7.13-6.4
		c2.295,0.459,13.045,9.766,23.274,19.441c10.512,9.943,20.552,20.256,26.104,20.256c5.78,0.002,21.723-21.961,25.008-26.707
		s23.424-32.074,22.115-33.691c-2.068-2.557-8.606,7.285-19.194,5.824c0,0-11.683-8.396-20.08-14.604c0-0.504,0-25.338,0-58.494
		L217.598,336.154z"/>
	<polygon display="inline" fill="#52575B" points="173.215,352.01 223.104,322.158 170.441,349.914 	"/>
	<polygon display="inline" fill="#586572" points="172.563,317.589 254.343,276.334 252.518,271.953 	"/>
	<path display="inline" fill="#586572" d="M318.643,192.872h33.588l75.938,92.002c0,0-0.273-57.867-0.273-78.95
		c0-8.771-10.679-9.31-17.228-9.036c0-1.78-0.046-4.016-0.046-4.016h43.766v3.97c0,0-17.387,0.045-17.387,9.173
		c0,14.604,0.151,75.59,0.151,113.64c-1.612,0-2.684-0.053-4.51-0.053c-21.683-23.337-79.924-97.524-79.924-97.524
		c-0.001,20.542,0.124,68.545,0.334,85.157c0.091,7.21,10.929,8.671,16.216,8.671c0,2.434,0,3.285,0,3.285h-43.871l0.061-4.139
		c0,0,18.011,1.4,18.011-7.817c0-20.628,0-73.847,0-96.353c-2.921-10.223-14.741-13.355-24.826-13.629
		C318.643,195.184,318.643,192.872,318.643,192.872z"/>
	<path display="inline" fill="#586572" d="M481.475,318.719l53.986,0.045c0,0,0-1.871,0-2.943
		c-5.567-0.137-14.103,1.264-17.51-5.795c0-8.191,0.009-97.319,0.009-104.552c1.217-6.326,6.351-7.088,17.303-7.088
		c0-1.703,0-4.624,0-4.624h-53.788v3.651c0,0,14.998-2.404,18.162,8.061c0,8.739,0.092,98.71,0.092,104.552
		c-3.126,5.955-9.25,5.841-18.254,5.841"/>
	<path display="inline" fill="#586572" d="M562.49,193.422h103.776v30.576h-3.012c0,0-3.346-21.814-18.448-21.814
		c-12.14,0-22.351,0-22.351,0s0,104.871,0,108.202c2.738,3.059,6.997,5.828,17.401,5.828c0,0.912,0,2.889,0,2.889h-52.541
		c0,0,0-1.246,0-2.889c3.133-0.274,12.322,1.52,17.524-5.828c0-11.09,0-108.202,0-108.202s-15.607,0-21.723,0
		s-17.615,7.667-17.615,21.814c-1.552,0-3.013,0-3.013,0V193.422z"/>
	<path display="inline" fill="#586572" d="M807.828,380.607c0,10.84,14.185,10.469,29.327,10.469c0,1.998,0,5.596,0,5.596h-86.28
		c0,0,0-2,0-5.596c8.625,0,27.669,3.473,27.669-10.469c0,0,0.077-60.846,0.077-68.271c-3.682-4.867-54.518-84.578-60.725-93.461
		s-17.524-19.227-31.276-19.227c0-1.897,0-5.887,0-5.887h87.62v5.887c0,0-23.365-2.245-23.365,11.683
		c0,13.925,50.137,85.065,51.354,85.065s47.949-73.14,47.949-82.145c0-9.006-4.624-14.604-20.445-14.604c0-2.501,0-5.887,0-5.887
		h71.558c0,0,0,2.668,0,5.887c-8.101,0-20.688,2.798-27.747,11.439c-7.06,8.641-65.716,99.668-65.716,99.668V380.607z"/>
	<text transform="matrix(1 0 0 1 335.4961 393.3125)" display="inline" font-family="'MyriadPro-Regular'" font-size="51.1122">S  O  F  T  W  A  R  E</text>
</g>
<g id="Nity" display="none">
	<path display="inline" fill="#586572" d="M318.643,192.872h33.588l75.938,92.002c0,0-0.273-57.867-0.273-78.95
		c0-8.771-10.679-9.31-17.228-9.036c0-1.78-0.046-4.016-0.046-4.016h43.766v3.97c0,0-17.387,0.045-17.387,9.173
		c0,14.604,0.151,75.59,0.151,113.64c-1.612,0-2.684-0.053-4.51-0.053c-21.683-23.337-79.924-97.524-79.924-97.524
		c-0.001,20.542,0.124,68.545,0.334,85.157c0.091,7.21,10.929,8.671,16.216,8.671c0,2.434,0,3.285,0,3.285h-43.871l0.061-4.139
		c0,0,18.011,1.4,18.011-7.817c0-20.628,0-73.847,0-96.353c-2.921-10.223-14.741-13.355-24.826-13.629
		C318.643,195.184,318.643,192.872,318.643,192.872z"/>
	<path display="inline" fill="#586572" d="M481.475,318.719l53.986,0.045c0,0,0-1.871,0-2.943
		c-5.567-0.137-14.103,1.264-17.51-5.795c0-8.191,0.009-97.319,0.009-104.552c1.217-6.326,6.351-7.088,17.303-7.088
		c0-1.703,0-4.624,0-4.624h-53.788v3.651c0,0,14.998-2.404,18.162,8.061c0,8.739,0.092,98.71,0.092,104.552
		c-3.126,5.955-9.25,5.841-18.254,5.841"/>
	<path display="inline" fill="#586572" d="M562.49,193.422h103.776v30.576h-3.012c0,0-3.346-21.814-18.448-21.814
		c-12.14,0-22.351,0-22.351,0s0,104.871,0,108.202c2.738,3.059,6.997,5.828,17.401,5.828c0,0.912,0,2.889,0,2.889h-52.541
		c0,0,0-1.246,0-2.889c3.133-0.274,12.322,1.52,17.524-5.828c0-11.09,0-108.202,0-108.202s-15.607,0-21.723,0
		s-17.615,7.667-17.615,21.814c-1.552,0-3.013,0-3.013,0V193.422z"/>
	<path display="inline" fill="#586572" d="M807.828,380.607c0,10.84,14.185,10.469,29.327,10.469c0,1.998,0,5.596,0,5.596h-86.28
		c0,0,0-2,0-5.596c8.625,0,27.669,3.473,27.669-10.469c0,0,0.077-60.846,0.077-68.271c-3.682-4.867-54.518-84.578-60.725-93.461
		s-17.524-19.227-31.276-19.227c0-1.897,0-5.887,0-5.887h87.62v5.887c0,0-23.365-2.245-23.365,11.683
		c0,13.925,50.137,85.065,51.354,85.065s47.949-73.14,47.949-82.145c0-9.006-4.624-14.604-20.445-14.604c0-2.501,0-5.887,0-5.887
		h71.558c0,0,0,2.668,0,5.887c-8.101,0-20.688,2.798-27.747,11.439c-7.06,8.641-65.716,99.668-65.716,99.668V380.607z"/>
	<text transform="matrix(1 0 0 1 335.4961 393.3125)" display="inline" font-family="'MyriadPro-Regular'" font-size="51.1122">S  O  F  T  W  A  R  E</text>
</g>
<g id="Nity_copy">
	<g>
		<path fill="#586572" d="M298.169,182.26h37.823l85.515,103.603c0,0-0.308-65.164-0.308-88.906c0-9.876-12.026-10.484-19.4-10.175
			c0-2.004-0.052-4.522-0.052-4.522h49.285v4.471c0,0-19.58,0.051-19.58,10.33c0,16.445,0.17,85.122,0.17,127.971
			c-1.815,0-3.022-0.06-5.079-0.06c-24.417-26.28-90.002-109.822-90.002-109.822c-0.001,23.133,0.14,77.189,0.376,95.896
			c0.103,8.119,12.307,9.765,18.261,9.765c0,2.74,0,3.699,0,3.699h-49.403l0.068-4.661c0,0,20.282,1.577,20.282-8.803
			c0-23.229,0-83.16,0-108.503c-3.289-11.512-16.599-15.04-27.957-15.348C298.169,184.863,298.169,182.26,298.169,182.26z"/>
		<path fill="#586572" d="M481.534,323.977l60.794,0.051c0,0,0-2.107,0-3.314c-6.269-0.154-15.881,1.423-19.717-6.526
			c0-9.224,0.01-109.591,0.01-117.736c1.37-7.124,7.151-7.982,19.484-7.982c0-1.917,0-5.207,0-5.207h-60.571v4.111
			c0,0,16.89-2.708,20.453,9.077c0,9.841,0.103,111.158,0.103,117.736c-3.52,6.706-10.416,6.577-20.556,6.577"/>
		<path fill="#586572" d="M572.767,182.88h116.862v34.432h-3.391c0,0-3.768-24.564-20.775-24.564c-13.67,0-25.169,0-25.169,0
			s0,118.096,0,121.847c3.084,3.444,7.88,6.563,19.596,6.563c0,1.027,0,3.254,0,3.254h-59.166c0,0,0-1.403,0-3.254
			c3.527-0.309,13.876,1.712,19.733-6.563c0-12.488,0-121.847,0-121.847s-17.575,0-24.461,0c-6.887,0-19.837,8.633-19.837,24.564
			c-1.747,0-3.393,0-3.393,0V182.88z"/>
		<path fill="#586572" d="M849.042,393.669c0,12.207,15.974,11.789,33.025,11.789c0,2.25,0,6.302,0,6.302h-97.16
			c0,0,0-2.252,0-6.302c9.713,0,31.158,3.911,31.158-11.789c0,0,0.087-68.519,0.087-76.88
			c-4.146-5.481-61.393-95.244-68.383-105.248c-6.989-10.003-19.734-21.652-35.22-21.652c0-2.136,0-6.629,0-6.629h98.669v6.629
			c0,0-26.312-2.527-26.312,13.156c0,15.681,56.459,95.792,57.83,95.792c1.372,0,53.996-82.363,53.996-92.503
			c0-10.142-5.207-16.445-23.023-16.445c0-2.817,0-6.629,0-6.629h80.581c0,0,0,3.005,0,6.629c-9.122,0-23.296,3.151-31.246,12.882
			c-7.95,9.73-74.003,112.236-74.003,112.236V393.669z"/>
		<text transform="matrix(1 0 0 1 317.1475 407.9775)" font-family="'MyriadPro-Regular'" font-size="57.5576">S  O  F  T  W  A  R  E</text>
	</g>
</g>
<g id="Color1" display="none">
	<path display="inline" fill="#364F63" d="M156.25,339.625c0.365-64.984-1.095-154.383,0-163.875
		c14.969-6.572,28.11-26.211,32.005-31.322c2.435-5.111-2.677-6.937-14.725,0c-12.048,1.095-25.426-21.997-43.537-21.997
		c-12.937,0-24.853,13.256-38.729,24.429c-14.361,11.562-32.94,27.772-30.304,31.033c4.625,5.72,23.123-11.073,37.361-3.285
		c0,6.815,0.73,8.15,0.73,26.772c0,48.009-0.852,127.435-0.852,156.683c-3.408,18.438-23.73,29.025-20.567,35.84
		c3.166,6.813,13.649-3.309,18.396-5.135c2.342-0.9,7.917-3.459,18.042-1.383l0.005-0.004l59.139-35.373
		C165.925,346.396,159.708,340.222,156.25,339.625z"/>
	<g display="inline">
		<path fill="#364F63" d="M202.231,398.693c-2.122,4.697-10.573,10.99-16.429,18.254c-8.249,10.229-16.977,20.811-32.493,12.047
			c-21.5-18.811-36.713-25.826-47.111-27.945c0.021,0.004,0.042,0.006,0.063,0.012l0.005-0.006l59.139-35.373L202.231,398.693z"/>
	</g>
	<path display="inline" fill="#6F8EA3" d="M314.413,139.339c-2.342-1.224-7.798,4.759-14.846,4.381
		c-6.816-0.365-10.71-4.26-17.646-9.492c-9.561-7.212-16.794-12.778-24.935-12.413c-8.14,0.365-28.003,14.969-34.94,21.175
		c-6.937,6.206-35.542,28.124-28.355,33.223c3.772,2.677,21.419-10.345,29.086-3.286c0,11.989,0.234,101.432,0.328,149.23
		l57.356-34.309c0-48.468,0-109.081,0-109.081S325.402,145.085,314.413,139.339z"/>
	<path display="inline" fill="#6F8EA3" d="M217.598,336.154c0.024,11.879,0.038,21.196,0.038,26.102
		c-3.742,3.377-14.733,11.213-23.447,18.217c4.176,4.176,9.996,9.336,16.408,15.748c1.734-1.619,5.762-6.674,7.13-6.4
		c2.295,0.459,13.045,9.766,23.274,19.441c10.512,9.943,20.552,20.256,26.104,20.256c5.78,0.002,21.723-21.961,25.008-26.707
		s23.424-32.074,22.115-33.691c-2.068-2.557-8.606,7.285-19.194,5.824c0,0-11.683-8.396-20.08-14.604c0-0.504,0-25.338,0-58.494
		L217.598,336.154z"/>
	<polygon display="inline" fill="#364F63" points="173.215,352.01 223.104,322.158 170.441,349.914 	"/>
	<polygon display="inline" fill="#6F8EA3" points="172.563,317.589 254.343,276.334 252.518,271.953 	"/>
</g>
<g id="Color2">
	<path fill="#1A748F" d="M115.298,347.519c0.411-73.179-1.233-173.851,0-184.54c16.856-7.401,31.655-29.517,36.041-35.271
		c2.742-5.756-3.014-7.812-16.582,0c-13.567,1.233-28.632-24.771-49.027-24.771c-14.567,0-27.987,14.927-43.613,27.51
		c-16.172,13.02-37.094,31.274-34.125,34.946c5.208,6.442,26.802-12.469,42.836-3.699c0,7.666,0.06,9.178,0.06,30.148
		c0,53.624-0.959,143.994-0.959,176.441c-3.838,20.763-26.723,32.687-23.161,40.359c3.565,7.672,15.371-3.726,20.715-5.782
		c2.637-1.014,8.915-3.895,20.317-1.557l0.006-0.005l66.596-39.833C126.193,355.145,119.192,348.19,115.298,347.519z"/>
	<g>
		<path fill="#1A748F" d="M167.077,414.036c-2.39,5.289-11.906,12.376-18.5,20.556c-9.29,11.519-19.118,23.435-36.59,13.566
			c-24.212-21.183-41.342-29.083-53.052-31.47c0.024,0.005,0.047,0.007,0.071,0.014l0.006-0.007l66.596-39.834L167.077,414.036z"/>
	</g>
	<path fill="#36ACD1" d="M293.405,121.977c-2.637-1.378-8.781,5.359-16.718,4.934c-7.676-0.412-12.061-4.797-19.872-10.689
		c-10.767-8.121-18.912-14.39-28.079-13.978c-9.167,0.411-31.534,16.856-39.346,23.845c-7.812,6.989-40.023,31.671-31.931,37.412
		c4.248,3.015,24.12-11.649,32.753-3.7c0,13.501,0.264,114.222,0.369,168.049l64.589-38.635c0-54.58,0-122.836,0-122.836
		S305.781,128.447,293.405,121.977z"/>
	<path fill="#36ACD1" d="M184.382,343.61c0.027,13.377,0.043,23.869,0.043,29.394c-4.214,3.803-16.591,12.627-26.403,20.514
		c4.702,4.702,11.256,10.514,18.477,17.734c1.953-1.823,6.488-7.516,8.029-7.208c2.584,0.517,14.69,10.997,26.209,21.894
		c11.838,11.197,23.144,22.81,29.396,22.81c6.509,0.002,24.462-24.73,28.162-30.074c3.7-5.345,26.378-36.119,24.904-37.94
		c-2.329-2.879-9.692,8.204-21.615,6.559c0,0-13.156-9.455-22.612-16.445c0-0.567,0-28.533,0-65.87L184.382,343.61z"/>
	<polygon fill="#1A748F" points="134.403,361.466 190.582,327.85 131.279,359.105 	"/>
	<polygon fill="#36ACD1" points="133.669,322.704 225.761,276.247 223.705,271.313 	"/>
</g>
</svg>
