<?xml version="1.0" encoding="utf-8"?>
<!-- Generator: Adobe Illustrator 16.0.0, SVG Export Plug-In . SVG Version: 6.00 Build 0)  -->
<!DOCTYPE svg PUBLIC "-//W3C//DTD SVG 1.1//EN" "http://www.w3.org/Graphics/SVG/1.1/DTD/svg11.dtd">
<svg version="1.1" id="Layer_1" xmlns="http://www.w3.org/2000/svg" xmlns:xlink="http://www.w3.org/1999/xlink" x="0px" y="0px"
	 width="320px" height="377.632px" viewBox="0 0 320 377.632" enable-background="new 0 0 320 377.632" xml:space="preserve">
<g id="LetterU">
	<g id="LeftU">
		<path fill="#1A748F" d="M121.719,259.309c0.411-73.178-1.233-173.851,0-184.54c16.856-7.401,31.655-29.517,36.041-35.271
			c2.742-5.756-3.014-7.812-16.582,0c-13.567,1.233-28.632-24.771-49.027-24.771c-14.567,0-27.987,14.927-43.613,27.51
			c-16.172,13.02-37.094,31.274-34.125,34.946c5.208,6.442,26.802-12.469,42.836-3.699c0,7.666,0.06,9.178,0.06,30.148
			c0,53.624-0.959,143.995-0.959,176.442c-3.838,20.762-26.723,32.686-23.161,40.359c3.565,7.672,15.371-3.727,20.715-5.783
			c2.637-1.014,8.915-3.895,20.317-1.557l0.006-0.004l66.596-39.834C132.614,266.936,125.613,259.981,121.719,259.309z"/>
		<g>
			<path fill="#1A748F" d="M173.498,325.827c-2.39,5.289-11.906,12.377-18.5,20.557c-9.29,11.518-19.118,23.434-36.59,13.566
				c-24.212-21.184-41.342-29.084-53.052-31.471c0.024,0.006,0.047,0.008,0.071,0.014l0.006-0.006l66.596-39.834L173.498,325.827z"
				/>
		</g>
		<polygon fill="#1A748F" points="140.824,273.256 197.003,239.641 137.7,270.897 		"/>
	</g>
	<g id="RightU">
		<path fill="#36ACD1" d="M299.826,33.767c-2.637-1.378-8.781,5.359-16.718,4.934c-7.676-0.412-12.061-4.797-19.872-10.689
			c-10.767-8.121-18.911-14.39-28.079-13.978c-9.166,0.411-31.534,16.856-39.346,23.845C188,44.868,155.788,69.55,163.88,75.291
			c4.248,3.015,24.12-11.649,32.754-3.7c0,13.501,0.264,114.222,0.369,168.05l64.589-38.635c0-54.581,0-122.837,0-122.837
			S312.202,40.238,299.826,33.767z"/>
		<path fill="#36ACD1" d="M190.803,255.401c0.026,13.377,0.043,23.869,0.043,29.395c-4.214,3.803-16.591,12.627-26.403,20.514
			c4.702,4.701,11.256,10.514,18.477,17.734c1.953-1.824,6.488-7.516,8.029-7.209c2.584,0.518,14.689,10.998,26.209,21.895
			c11.838,11.197,23.145,22.809,29.396,22.809c6.509,0.002,24.462-24.73,28.162-30.074c3.699-5.344,26.377-36.119,24.903-37.939
			c-2.329-2.879-9.692,8.203-21.614,6.559c0,0-13.156-9.455-22.612-16.445c0-0.568,0-28.533,0-65.871L190.803,255.401z"/>
		<polygon fill="#36ACD1" points="140.09,234.495 232.182,188.037 230.126,183.104 		"/>
	</g>
</g>
</svg>
