<svg version="1.1" id="Layer_1" xmlns="http://www.w3.org/2000/svg" xmlns:xlink="http://www.w3.org/1999/xlink" x="0px" y="0px"
	 width="24.244px" height="42.998px" viewBox="0 0 24.244 42.998" enable-background="new 0 0 24.244 42.998" xml:space="preserve">
<g>
	<path id="icon" fill-rule="evenodd" clip-rule="evenodd" fill="#CDCDCD" d="M20.369,42.998c-0.043-0.02-0.141-0.069-0.238-0.113
		c-0.07-0.032-0.141-0.068-0.214-0.084c-0.068-0.015-0.142-0.004-0.212-0.004c-5.066,0-10.131,0-15.197,0
		c-0.175,0-0.344-0.017-0.487,0.141c-0.054,0.06-0.2,0.06-0.301,0.048c-0.431-0.048-0.86-0.102-1.274-0.248
		c-0.412-0.147-0.788-0.35-1.127-0.63c-0.269-0.222-0.536-0.445-0.746-0.722c-0.275-0.361-0.461-0.771-0.542-1.221
		c-0.033-0.182-0.079-0.37,0.112-0.509c0.034-0.024,0.041-0.094,0.047-0.146c0.008-0.07,0.003-0.141,0.003-0.212
		c0-11.885,0-23.77-0.001-35.654c0-0.164,0.037-0.341-0.14-0.455C0.027,3.174,0.016,3.127,0.014,3.094
		C-0.018,2.781,0.081,2.498,0.257,2.25c0.058-0.081,0.118-0.145,0.12-0.249c0.004-0.239,0.152-0.391,0.335-0.505
		c0.085-0.052,0.133-0.104,0.149-0.199c0.007-0.042,0.023-0.101,0.053-0.116c0.381-0.188,0.609-0.575,1.013-0.739
		c0.485-0.198,0.972-0.378,1.495-0.434c0.141-0.015,0.279-0.021,0.396,0.099c0.048,0.049,0.14,0.064,0.214,0.079
		C4.1,0.199,4.172,0.188,4.243,0.188c5.242,0,10.485,0,15.728-0.001c0.182,0,0.365,0.036,0.51-0.142
		c0.044-0.053,0.186-0.05,0.277-0.037c0.42,0.062,0.83,0.148,1.229,0.313c0.365,0.151,0.692,0.348,1.003,0.58
		c0.083,0.062,0.147,0.147,0.218,0.224c0.036,0.039,0.06,0.09,0.101,0.122c0.273,0.209,0.468,0.471,0.559,0.806
		c0.01,0.033,0.021,0.072,0.045,0.095c0.27,0.256,0.26,0.609,0.32,0.935c0.026,0.139,0.014,0.279-0.115,0.387
		c-0.045,0.038-0.059,0.124-0.068,0.19c-0.012,0.078-0.004,0.159-0.004,0.239c0,11.725,0,23.451,0.002,35.176
		c0,0.189-0.041,0.385,0.148,0.533c0.049,0.038,0.051,0.169,0.037,0.251c-0.09,0.554-0.223,1.097-0.598,1.535
		c-0.111,0.13-0.256,0.228-0.319,0.398c-0.015,0.038-0.088,0.052-0.132,0.079c-0.053,0.031-0.107,0.058-0.151,0.097
		c-0.099,0.085-0.179,0.193-0.286,0.263C22.045,42.688,21.273,42.933,20.369,42.998z M3.876,4.413
		C3.79,4.521,3.761,4.712,3.566,4.728c-0.158,0.013-0.209,0.1-0.216,0.244C3.344,5.1,3.282,5.189,3.146,5.212
		C3.022,5.233,2.998,5.321,3,5.428C3,5.499,2.998,5.57,2.998,5.64c0,9.953,0,19.906,0,29.859C2.998,35.57,3,35.641,3,35.711
		c-0.001,0.095,0.019,0.175,0.121,0.213c0.031,0.012,0.08,0.035,0.084,0.058c0.031,0.219,0.226,0.304,0.355,0.441
		c0.133,0.14,0.257,0.292,0.469,0.322c0.048,0.006,0.105,0.046,0.13,0.087c0.122,0.2,0.312,0.195,0.511,0.195
		c4.941-0.002,9.883-0.001,14.822-0.002c0.189,0,0.402,0.055,0.488-0.2c0.002-0.007,0.012-0.014,0.02-0.017
		c0.205-0.098,0.406-0.212,0.62-0.287c0.121-0.042,0.183-0.088,0.229-0.214c0.074-0.197,0.092-0.443,0.34-0.538
		c0.026-0.01,0.039-0.077,0.043-0.119c0.007-0.079,0.004-0.159,0.004-0.239c0-9.847,0-19.693,0-29.54
		c0-0.071,0.012-0.145-0.006-0.212c-0.015-0.062-0.045-0.146-0.094-0.169c-0.113-0.052-0.142-0.148-0.184-0.246
		c-0.034-0.081-0.068-0.166-0.123-0.233c-0.206-0.253-0.47-0.426-0.785-0.514c-0.119-0.033-0.241-0.047-0.295-0.192
		c-0.016-0.04-0.098-0.068-0.152-0.077c-0.078-0.013-0.16-0.004-0.239-0.004c-4.843,0-9.687,0-14.53,0c-0.063,0-0.125,0.002-0.186,0
		C4.537,4.222,4.462,4.251,4.403,4.353c-0.032,0.056-0.122,0.101-0.19,0.106C4.113,4.467,4.01,4.434,3.876,4.413z M12.226,38.975
		c-0.62,0-1.238,0-1.856,0c-0.248,0-0.496,0.001-0.744,0c-0.093,0-0.177,0.012-0.211,0.118c-0.047,0.143-0.156,0.21-0.297,0.23
		C9,39.341,8.949,39.406,8.949,39.521c0.002,0.238,0.002,0.477,0,0.716c0,0.112,0.045,0.173,0.16,0.207
		c0.097,0.028,0.23,0.079,0.26,0.153c0.076,0.201,0.218,0.195,0.383,0.195c0.875-0.003,1.75-0.001,2.625-0.001
		c0.725,0,1.451-0.002,2.176,0.002c0.141,0,0.239-0.038,0.342-0.152c0.117-0.134,0.149-0.346,0.35-0.411
		c0.018-0.005,0.032-0.045,0.032-0.069c0.003-0.185,0.004-0.371-0.001-0.556c-0.001-0.03-0.027-0.077-0.053-0.086
		c-0.186-0.064-0.181-0.216-0.184-0.369c-0.003-0.12-0.07-0.174-0.188-0.173c-0.071,0-0.143-0.001-0.213-0.001
		C13.834,38.975,13.029,38.975,12.226,38.975z M9.296,2.361C9.32,2.399,9.369,2.447,9.383,2.502c0.041,0.166,0.152,0.189,0.3,0.189
		c1.628-0.003,3.257-0.002,4.886-0.002c0.035,0,0.072,0.006,0.104-0.004c0.048-0.016,0.116-0.032,0.134-0.068
		c0.068-0.143,0.188-0.166,0.326-0.181c0.143-0.015,0.176-0.094,0.115-0.224C15.191,2.092,15.094,2.018,14.963,2
		c-0.087-0.012-0.176-0.008-0.266-0.008c-1.609,0-3.221,0.007-4.83-0.008C9.583,1.981,9.393,2.041,9.3,2.316
		C9.297,2.324,9.299,2.333,9.296,2.361z"/>
</g>
</svg>
