<?xml version="1.0" encoding="utf-8"?>
<!-- Generator: Adobe Illustrator 16.0.0, SVG Export Plug-In . SVG Version: 6.00 Build 0)  -->
<!DOCTYPE svg PUBLIC "-//W3C//DTD SVG 1.1//EN" "http://www.w3.org/Graphics/SVG/1.1/DTD/svg11.dtd">
<svg version="1.1" id="Layer_1" xmlns="http://www.w3.org/2000/svg" xmlns:xlink="http://www.w3.org/1999/xlink" x="0px" y="0px"
	 width="134.904px" height="134.904px" viewBox="0 0 134.904 134.904" enable-background="new 0 0 134.904 134.904"
	 xml:space="preserve">
<g id="Social_Media">
	<g id="Facebook">
		<circle fill="#FFFFFF" cx="-496.3" cy="67.452" r="67.452"/>
		<path fill="#1A748F" d="M-470.758,22.525c-27,0-38.315-1.074-38.315,29.926c-6.191,0-17.685,0-17.685,0v15h18v49h18v-45h20v-19
			c0,0-13.963,0-16.7,0c0-14,0.7-13.491,16.7-13.491C-470.758,32.908-470.758,22.525-470.758,22.525z"/>
	</g>
	<g id="Twitter">
		<g>
			<circle fill="#FFFFFF" cx="-308.382" cy="67.452" r="67.452"/>
		</g>
		<g>
			<path fill-rule="evenodd" clip-rule="evenodd" fill="#1A748F" d="M-353.262,96.23c10.145,0.617,18.787-1.742,27.023-7.99
				c-8.541-0.953-14.296-4.75-17.434-12.324c2.646-0.139,5.024-0.26,7.41-0.382c0.059-0.214,0.121-0.426,0.184-0.642
				c-8.566-2.828-13.689-8.363-14.369-17.577c2.676,0.646,5.146,1.243,7.615,1.838c0.106-0.214,0.214-0.426,0.316-0.639
				c-3.578-2.87-6.262-6.324-7.246-10.856c-0.965-4.435-0.587-8.692,1.799-13.121c10.424,11.605,23.12,18.181,38.556,19.11
				c0.125-2.801-0.069-5.365,0.405-7.799c2.688-13.87,19.234-19.772,30.088-10.714c1.593,1.328,2.937,1.598,4.72,0.922
				c2.749-1.036,5.51-2.033,8.559-3.156c-1.453,3.901-4.062,6.724-7.358,9.04c0.134,0.191,0.27,0.385,0.401,0.576
				c2.888-0.717,5.78-1.428,8.672-2.14c0.143,0.135,0.282,0.267,0.425,0.399c-2.196,2.191-4.29,4.5-6.631,6.519
				c-1.369,1.189-2.053,2.309-2.06,4.206c-0.097,25.137-17.206,46.182-41.737,51.483
				C-326.936,105.789-342.461,103.248-353.262,96.23z"/>
		</g>
	</g>
	<g id="Gooble">
		<g>
			<circle fill="#FFFFFF" cx="-120.465" cy="67.452" r="67.453"/>
		</g>
		<g>
			<path fill-rule="evenodd" clip-rule="evenodd" fill="#1A748F" d="M-93.07,70.116c-4.91,0-9.227-0.125-13.533,0.041
				c-3.159,0.121-4.39-0.988-4.386-4.279c0-3.413,1.143-4.764,4.607-4.591c4.282,0.208,8.583,0.048,13.315,0.048
				c0-4.93,0.117-9.39-0.045-13.838c-0.114-3.101,1.255-4.012,4.171-4.026c2.961-0.018,4.748,0.594,4.619,4.063
				c-0.164,4.443-0.041,8.904-0.041,13.804c4.989,0,9.448,0.132,13.897-0.044c3.475-0.136,4.133,1.724,4.147,4.636
				c0.01,2.862-0.93,4.32-4.03,4.221c-4.452-0.146-8.908-0.038-14.009-0.038c0,4.955-0.118,9.393,0.035,13.824
				c0.118,3.28-1.332,4.301-4.455,4.293c-3.174-0.007-4.481-1.138-4.342-4.39C-92.928,79.52-93.07,75.189-93.07,70.116z"/>
			<g>
				<path fill="#1A748F" d="M-117.266,74.217c-1.883-1.612-3.916-3.058-5.698-4.771c-4.039-3.876-3.973-5.422,0.098-9.029
					c11.11-9.844,12.553-16.678,6.467-30.119c2.338-1.519,4.768-2.866,6.896-4.584c1.047-0.847,1.546-2.374,2.292-3.593
					c-1.327-0.543-2.648-1.534-3.983-1.557c-8.526-0.132-17.061-0.238-25.581,0.015c-8.062,0.234-15.111,3.175-20.61,9.271
					c-8.287,9.193-7.219,23.027,2.839,30.272c3.871,2.787,8.768,4.154,13.719,6.408c0.201,1.594,0.521,4.126,0.873,6.915
					c-2.039,0.301-4.015,0.547-5.967,0.89c-7.4,1.305-13.892,4.293-18.693,10.299c-6.892,8.624-5.438,18.823,4.202,24.097
					c12.508,6.848,25.799,7.837,38.84,1.543C-106.515,103.006-104.551,85.07-117.266,74.217z M-144.612,52.434
					c-3.567-4.985-5.232-10.479-3.578-16.602c1.846-6.833,7.876-9.01,13.624-4.834c5.288,3.841,7.164,9.448,7.604,15.229
					c-0.063,5.887-2.535,10.243-6.228,11.433C-136.979,58.874-141.363,56.966-144.612,52.434z M-126.705,103.138
					c-3.325,1.421-7.095,1.792-10.662,2.639c-5.271-0.309-9.964-1.488-13.738-5.178c-4.869-4.75-4.716-11.103,0.654-15.254
					c8.25-6.387,19.283-7.121,27.779,2.323C-118.47,92.332-120.474,100.474-126.705,103.138z"/>
			</g>
		</g>
	</g>
	<g id="Linkedin">
		<g>
			<g>
				<circle fill="#FFFFFF" cx="67.452" cy="67.452" r="67.452"/>
			</g>
		</g>
		<g>
			<g>
				<path fill-rule="evenodd" clip-rule="evenodd" fill="#1A748F" d="M108.544,104.393c-5.601,0-10.956,0-16.575,0
					c0-2.054,0-3.974,0-5.889c0-6.619,0.025-13.239-0.014-19.861c-0.013-1.603-0.125-3.229-0.391-4.811
					c-0.825-4.966-3.934-7.541-8.635-7.282c-4.353,0.237-8.222,3.853-8.321,8.278c-0.188,8.23-0.095,16.466-0.116,24.699
					c0,1.526,0,3.045,0,4.789c-5.595,0-11.009,0-16.561,0c0-16.52,0-32.952,0-49.586c5.424,0,10.782,0,16.42,0
					c0,1.928,0,3.901,0,6.089c0.492-0.19,0.749-0.205,0.842-0.337c5.185-6.952,12.231-8.354,20.098-6.248
					c7.887,2.115,11.491,8.097,12.765,15.731c0.326,1.978,0.455,4.012,0.466,6.02c0.051,8.639,0.022,17.276,0.022,25.917
					C108.544,102.687,108.544,103.473,108.544,104.393z"/>
				<path fill-rule="evenodd" clip-rule="evenodd" fill="#1A748F" d="M48.469,104.393c-5.486,0-10.839,0-16.317,0
					c0-16.61,0-33.091,0-49.712c5.468,0,10.819,0,16.317,0C48.469,71.291,48.469,87.767,48.469,104.393z"/>
				<path fill-rule="evenodd" clip-rule="evenodd" fill="#1A748F" d="M40.289,47.729c-5.462-0.007-9.286-3.608-9.242-8.696
					c0.047-5.035,3.93-8.54,9.443-8.522c5.437,0.019,9.3,3.649,9.278,8.709C49.746,44.202,45.806,47.736,40.289,47.729z"/>
			</g>
		</g>
	</g>
</g>
</svg>
