<svg version="1.1" id="Layer_1" xmlns="http://www.w3.org/2000/svg" xmlns:xlink="http://www.w3.org/1999/xlink" x="0px" y="0px"
	 width="43.284px" height="43.284px" viewBox="0 0 43.284 43.284" enable-background="new 0 0 43.284 43.284" xml:space="preserve">

<g>
	<path id="icon" fill-rule="evenodd" clip-rule="evenodd" fill="#CDCDCD" d="M18.937,0c1.803,0,3.607,0,5.41,0
		c0.471,0.114,0.94,0.233,1.412,0.34c8.419,1.9,13.989,6.944,16.669,15.146c0.368,1.123,0.574,2.299,0.855,3.45
		c0,1.804,0,3.607,0,5.411c-0.113,0.47-0.232,0.94-0.34,1.412c-1.9,8.418-6.944,13.987-15.146,16.669
		c-1.123,0.367-2.299,0.574-3.451,0.855c-1.803,0-3.607,0-5.41,0c-0.471-0.113-0.94-0.233-1.413-0.34
		c-8.418-1.9-13.988-6.945-16.669-15.146C0.488,26.675,0.281,25.499,0,24.348c0-1.804,0-3.607,0-5.411
		c0.114-0.47,0.233-0.94,0.34-1.412c1.9-8.418,6.944-13.988,15.146-16.669C16.609,0.488,17.785,0.281,18.937,0z M11.367,11.855
		c-1.673-0.697-3.37-1.42-5.087-2.093C6.1,9.692,5.677,9.855,5.577,10.03c-0.873,1.531-1.817,3.039-2.505,4.654
		c-0.8,1.875-1.23,3.875-1.223,5.962c2.874,0,5.67,0,8.351,0C10.597,17.654,10.983,14.742,11.367,11.855z M33.084,22.628
		c-0.403,3.033-0.79,5.948-1.169,8.802c1.661,0.693,3.384,1.423,5.12,2.116c0.162,0.065,0.516-0.035,0.617-0.176
		c2.305-3.188,3.614-6.731,3.813-10.742C38.596,22.628,35.799,22.628,33.084,22.628z M10.199,22.627c-2.711,0-5.508,0-8.388,0
		c0.215,4.005,1.51,7.552,3.814,10.742c0.099,0.138,0.408,0.271,0.542,0.216c1.762-0.708,3.51-1.45,5.202-2.158
		C10.991,28.581,10.603,25.667,10.199,22.627z M41.407,20.669c0.076-3.275-1.658-8.214-3.702-10.718
		c-0.28-0.343-0.499-0.373-0.841-0.134c-0.204,0.142-0.445,0.236-0.68,0.328c-1.455,0.567-2.911,1.128-4.272,1.654
		c0.389,2.95,0.777,5.885,1.171,8.87C35.794,20.669,38.571,20.669,41.407,20.669z M13.316,12.294
		c-0.703,2.737-1.074,5.522-1.134,8.36c2.884,0,5.657,0,8.458,0c0-2.567,0-5.075,0-7.53C18.175,12.845,15.788,12.574,13.316,12.294z
		 M31.279,20.658c-0.401-2.892-0.788-5.675-1.164-8.379c-2.652,0.3-5.065,0.572-7.488,0.845c0,2.496,0,4.988,0,7.534
		C25.453,20.658,28.226,20.658,31.279,20.658z M20.682,22.64c-2.872,0-5.663,0-8.676,0c0.401,2.881,0.79,5.664,1.166,8.366
		c2.654-0.3,5.067-0.572,7.511-0.849C20.682,27.683,20.682,25.21,20.682,22.64z M22.572,30.149c2.543,0.289,4.951,0.564,7.394,0.844
		c0.706-2.727,1.071-5.512,1.139-8.339c-2.895,0-5.688,0-8.532,0c0,2.304,0,4.526,0,6.747
		C22.572,29.653,22.572,29.903,22.572,30.149z M20.615,2.02c-2.667,0.203-5.715,4.711-6.701,8.525
		c2.255,0.244,4.489,0.484,6.791,0.733c0-3.155,0.001-6.055-0.004-8.955C20.7,2.22,20.644,2.117,20.615,2.02z M29.349,10.544
		c-0.853-3.659-4.129-8.512-6.777-8.481c0,0.302,0,0.606,0,0.91c0,2.698,0,5.396,0,8.314C24.898,11.032,27.116,10.789,29.349,10.544
		z M20.708,31.989c-2.349,0.264-4.561,0.512-6.796,0.762c1.029,3.891,4.084,8.34,6.716,8.509c0.026-0.13,0.077-0.263,0.077-0.397
		C20.709,37.991,20.708,35.12,20.708,31.989z M22.624,41.247c2.732-0.077,6.01-5.133,6.696-8.514
		c-2.228-0.242-4.444-0.481-6.696-0.725C22.624,35.239,22.624,38.242,22.624,41.247z M11.776,9.986
		c1.377-2.561,2.656-4.938,3.908-7.265c-3.22,0.95-6.07,2.768-8.643,5.474C8.805,8.862,10.367,9.453,11.776,9.986z M36.27,35.101
		c-1.789-0.674-3.37-1.27-4.778-1.801c-1.356,2.535-2.636,4.926-3.887,7.264C30.819,39.626,33.63,37.786,36.27,35.101z M27.408,2.76
		c1.77,2.149,2.887,4.615,3.854,7.324c1.656-0.634,3.245-1.243,4.994-1.913C33.628,5.495,30.816,3.659,27.408,2.76z M15.885,40.528
		c-1.791-2.142-2.89-4.645-3.872-7.326c-1.673,0.641-3.247,1.243-4.98,1.906C9.635,37.786,12.457,39.608,15.885,40.528z"/>
</g>
</svg>
